<?xml version="1.0" encoding="UTF-8"?>
<svg width="21px" height="22px" viewBox="0 0 21 22" version="1.1" xmlns="http://www.w3.org/2000/svg" xmlns:xlink="http://www.w3.org/1999/xlink">
    <defs></defs>
    <g id="Page-1" stroke="none" stroke-width="1" fill="none" fill-rule="evenodd">
        <g id="Notification" transform="translate(-8.000000, -8.000000)">
            <g id="bell" transform="translate(8.000000, 8.000000)">
                <ellipse id="Oval" fill="#D88B45" cx="10.5032457" cy="10.9910604" rx="10.4729954" ry="10.4892074"></ellipse>
                <path d="M16.1982056,15.0404845 C16.1982056,16.4311981 12.6474853,17.066952 10.5448563,17.066952 C8.4422272,17.066952 4.91137094,16.4311981 4.91137094,15.0404845 C4.91137094,14.821935 4.99072952,14.6232802 5.14941422,14.4444876 C7.07352705,10.4909938 6.57764142,8.64335139 7.62897218,7.17318885 C8.10502628,6.51757276 8.66043895,6.10036842 9.55305255,5.90171362 C9.59274807,5.38516563 10.0093076,4.98785604 10.5448887,4.98785604 C11.0606383,4.98785604 11.4970294,5.38519814 11.5367249,5.90171362 C12.4293385,6.10036842 12.9847512,6.51757276 13.4608377,7.17318885 C14.5121685,8.64335139 14.0162179,10.4909938 15.9403632,14.4444876 C16.0990155,14.6232802 16.1982056,14.8219675 16.1982056,15.0404845 Z M15.0278532,14.6431749 C14.2145657,13.6697307 12.1119366,13.4710433 10.5448563,13.4710433 C8.99763988,13.4710433 6.87514683,13.6696981 6.06189181,14.6431749 C6.87517929,15.6166842 8.99763988,15.855031 10.5448563,15.8352337 C12.1119366,15.8352337 14.2145657,15.6364814 15.0278532,14.6431749 Z M9.65224266,14.1663514 C9.65224266,14.047178 10.2671499,14.0273158 10.5448563,14.0273158 C11.2391221,14.0273158 11.4375023,14.086935 11.4375023,14.1663514 C11.4375023,14.7226563 11.0407419,15.1597554 10.5448563,15.1597554 C10.0489706,15.1597554 9.65224266,14.7226563 9.65224266,14.1663514 Z" id="Shape" fill="#FFFCF3"></path>
            </g>
        </g>
    </g>
</svg>
