<?xml version="1.0" encoding="UTF-8"?>
<svg width="346px" height="68px" viewBox="0 0 346 68" version="1.1" xmlns="http://www.w3.org/2000/svg" xmlns:xlink="http://www.w3.org/1999/xlink">
    <defs>
        <path d="M0.0591741734,19.9416635 C-0.475711148,15.5556039 2.67531035,12 7.0932217,12 L32.0881355,12 C36.507818,12 39.6578833,15.5489215 39.1221831,19.9416635 L36.0591742,45.0583365 C35.5242889,49.4443961 31.5043005,53 27.0872582,53 L12.0940991,53 C7.67393201,53 3.65788332,49.4510785 3.12218308,45.0583365 L0.0591741734,19.9416635 Z" id="path-1"></path>
        <mask id="mask-2" maskContentUnits="userSpaceOnUse" maskUnits="objectBoundingBox" x="0" y="0" width="39.1815404" height="41" fill="white">
            <use xlink:href="#path-1"></use>
        </mask>
        <path d="M27.0591742,34.9416635 C26.5242889,30.5556039 29.6753103,27 34.0932217,27 L59.0881355,27 C63.507818,27 66.6578833,30.5489215 66.1221831,34.9416635 L63.0591742,60.0583365 C62.5242889,64.4443961 58.5043005,68 54.0872582,68 L39.0940991,68 C34.673932,68 30.6578833,64.4510785 30.1221831,60.0583365 L27.0591742,34.9416635 Z" id="path-3"></path>
        <mask id="mask-4" maskContentUnits="userSpaceOnUse" maskUnits="objectBoundingBox" x="0" y="0" width="39.1815404" height="41" fill="white">
            <use xlink:href="#path-3"></use>
        </mask>
    </defs>
    <g id="Page-1" stroke="none" stroke-width="1" fill="none" fill-rule="evenodd">
        <g id="Group-5">
            <path d="M22.0591742,7.94166349 C21.5242889,3.55560386 24.6753103,0 29.0932217,0 L54.0881355,0 C58.507818,0 61.6578833,3.54892155 61.1221831,7.94166349 L58.0591742,33.0583365 C57.5242889,37.4443961 53.5043005,41 49.0872582,41 L34.0940991,41 C29.673932,41 25.6578833,37.4510785 25.1221831,33.0583365 L22.0591742,7.94166349 Z" id="Rectangle" fill="#2E2E2E"></path>
            <use id="Rectangle" stroke="#FFFFFF" mask="url(#mask-2)" stroke-width="4" fill="#4A4A4A" xlink:href="#path-1"></use>
            <use id="Rectangle" stroke="#FFFFFF" mask="url(#mask-4)" stroke-width="4" fill="#9B9B9B" xlink:href="#path-3"></use>
            <path d="M95.0605469,45.8066406 C94.2988243,46.0944025 93.4947959,46.3610014 92.6484375,46.6064453 C91.8020791,46.8518892 90.8499402,47.0550122 89.7919922,47.2158203 C88.7340442,47.3766284 87.5787823,47.4570312 86.3261719,47.4570312 C83.4993348,47.4570312 81.1084082,46.9788459 79.1533203,46.0224609 C77.1982324,45.0660759 75.6917371,43.864265 74.6337891,42.4169922 C73.5758411,40.9697193 72.843752,39.4928461 72.4375,37.9863281 C72.031248,36.4798102 71.828125,35.1510474 71.828125,34 C71.828125,32.8489526 72.0354797,31.5201898 72.4501953,30.0136719 C72.8649109,28.5071539 73.5885365,27.0514393 74.6210938,25.6464844 C75.653651,24.2415294 77.1474512,23.0651089 79.1025391,22.1171875 C81.057627,21.1692661 83.4654805,20.6953125 86.3261719,20.6953125 C88.2389419,20.6953125 89.7962179,20.8307278 90.9980469,21.1015625 C92.1998758,21.3723972 93.4186136,21.7363258 94.6542969,22.1933594 L94.6542969,29.3789062 C91.6751153,28.4309848 89.3476646,27.9570312 87.671875,27.9570312 C86.0468669,27.9570312 84.6038475,28.4479118 83.3427734,29.4296875 C82.0816994,30.4114632 81.4511719,31.9348855 81.4511719,34 C81.4511719,35.3711006 81.7643198,36.5263625 82.390625,37.4658203 C83.0169302,38.4052781 83.8124952,39.0950499 84.7773438,39.5351562 C85.7421923,39.9752626 86.7070264,40.1953125 87.671875,40.1953125 C88.5859421,40.1953125 89.6269473,40.0598972 90.7949219,39.7890625 C91.9628965,39.5182278 93.3847572,39.1289088 95.0605469,38.6210938 L95.0605469,45.8066406 Z M127.300111,34.0507812 C127.300111,36.6237108 126.741523,38.9173076 125.62433,40.9316406 C124.507137,42.9459736 122.835604,44.5371035 120.609681,45.7050781 C118.383759,46.8730527 115.671221,47.4570312 112.471986,47.4570312 C109.272751,47.4570312 106.560213,46.8730527 104.334291,45.7050781 C102.108368,44.5371035 100.441067,42.9459736 99.3323377,40.9316406 C98.2236082,38.9173076 97.6692517,36.6237108 97.6692517,34.0507812 C97.6692517,32.1041569 97.9781679,30.3352944 98.5960096,28.7441406 C99.2138512,27.1529868 100.153295,25.7438212 101.414369,24.5166016 C102.675443,23.2893819 104.228487,22.3457064 106.073549,21.6855469 C107.91861,21.0253873 110.051401,20.6953125 112.471986,20.6953125 C114.909498,20.6953125 117.063448,21.0296191 118.9339,21.6982422 C120.804352,22.3668653 122.353165,23.3020773 123.580385,24.5039062 C124.807604,25.7057352 125.734353,27.110669 126.360658,28.71875 C126.986963,30.326831 127.300111,32.1041569 127.300111,34.0507812 Z M117.677064,34.0507812 C117.677064,32.0025939 117.232733,30.3987688 116.344056,29.2392578 C115.45538,28.0797468 114.164703,27.5 112.471986,27.5 C110.796196,27.5 109.513983,28.0797468 108.625306,29.2392578 C107.73663,30.3987688 107.292299,32.0025939 107.292299,34.0507812 C107.292299,36.0820414 107.740862,37.6900982 108.638002,38.875 C109.535142,40.0599018 110.813124,40.6523438 112.471986,40.6523438 C114.164703,40.6523438 115.45538,40.0641335 116.344056,38.8876953 C117.232733,37.7112571 117.677064,36.0989686 117.677064,34.0507812 Z M158.90491,47 L149.764285,47 L149.764285,33.0605469 C149.764285,31.6386648 149.53154,30.3987683 149.066043,29.3408203 C148.600545,28.2828723 147.580699,27.7539062 146.006472,27.7539062 C145.261677,27.7539062 144.605759,27.8935533 144.038699,28.1728516 C143.471639,28.4521498 142.963831,28.8118468 142.515261,29.2519531 C142.066691,29.6920595 141.690068,30.1152323 141.385378,30.5214844 C141.080689,30.9277364 140.767542,31.3593727 140.445925,31.8164062 L140.445925,47 L131.3053,47 L131.3053,21.1523438 L140.445925,21.1523438 L140.445925,24.859375 C141.884735,23.3190027 143.327754,22.2399119 144.775027,21.6220703 C146.2223,21.0042287 147.834588,20.6953125 149.611941,20.6953125 C155.807284,20.6953125 158.90491,24.4023067 158.90491,31.8164062 L158.90491,47 Z M189.646427,26.6621094 L185.126896,26.6621094 C186.71805,28.0501371 187.513615,29.751292 187.513615,31.765625 C187.513615,32.8320366 187.289333,33.8561149 186.840763,34.8378906 C186.392193,35.8196664 185.732043,36.6914024 184.860294,37.453125 C183.988545,38.2148476 182.913686,38.8369117 181.635685,39.3193359 C180.357684,39.8017602 178.897737,40.0937495 177.255802,40.1953125 C175.139906,40.2799483 174.081974,40.847 174.081974,41.8964844 C174.081974,42.3027364 174.217389,42.5989574 174.488224,42.7851562 C174.759059,42.9713551 175.186463,43.1110021 175.770451,43.2041016 C176.354438,43.297201 177.340431,43.4029942 178.728458,43.5214844 C180.302685,43.6569017 181.766863,43.8938785 183.121036,44.2324219 C184.47521,44.5709652 185.736265,45.2818956 186.90424,46.3652344 C188.072214,47.4485731 188.656193,48.9973858 188.656193,51.0117188 C188.656193,52.6197997 188.220325,54.0416605 187.348576,55.2773438 C186.476826,56.513027 185.067661,57.4778611 183.121036,58.171875 C181.174412,58.8658889 178.601521,59.2128906 175.402286,59.2128906 C170.798097,59.2128906 167.416946,58.5950583 165.258732,57.359375 C163.100518,56.1236917 162.021427,54.4733176 162.021427,52.4082031 C162.021427,51.8496066 162.161074,51.2063838 162.440372,50.4785156 C162.719671,49.7506474 163.312113,49.0481805 164.217716,48.3710938 C165.12332,47.694007 166.439387,47.2369804 168.165958,47 C167.55658,46.7799468 167.031846,46.3525422 166.59174,45.7177734 C166.151633,45.0830046 165.931583,44.4186233 165.931583,43.7246094 C165.931583,42.8274695 166.2405,41.9388065 166.858341,41.0585938 C167.476183,40.178381 168.479102,39.6113294 169.86713,39.3574219 C167.937433,38.8496068 166.270132,37.8932362 164.865177,36.4882812 C163.460222,35.0833263 162.757755,33.263683 162.757755,31.0292969 C162.757755,29.3365801 163.083598,27.8554751 163.735294,26.5859375 C164.38699,25.3163999 165.288348,24.2838581 166.439396,23.4882812 C167.590443,22.6927044 168.927669,22.1044941 170.451115,21.7236328 C171.97456,21.3427715 173.641861,21.1523438 175.453068,21.1523438 L189.646427,21.1523438 L189.646427,26.6621094 Z M179.540958,31.0292969 C179.540958,29.7259049 179.096627,28.680668 178.207951,27.8935547 C177.319274,27.1064414 176.324818,26.7128906 175.224552,26.7128906 C173.819597,26.7128906 172.715116,27.1868442 171.911076,28.1347656 C171.107035,29.082687 170.705021,30.081375 170.705021,31.1308594 C170.705021,31.8587276 170.878522,32.5358042 171.225529,33.1621094 C171.572536,33.7884146 172.063416,34.2919903 172.698185,34.6728516 C173.332954,35.0537128 174.090433,35.2441406 174.970646,35.2441406 C176.290965,35.2441406 177.382751,34.8294312 178.246036,34 C179.109322,33.1705688 179.540958,32.1803443 179.540958,31.0292969 Z M181.369083,51.8242188 C181.369083,50.6900985 180.763946,49.9580095 179.553654,49.6279297 C178.343361,49.2978499 177.095001,49.1328125 175.808536,49.1328125 C173.69264,49.1328125 172.164986,49.3570941 171.225529,49.8056641 C170.286071,50.254234 169.816349,50.9693961 169.816349,51.9511719 C169.816349,53.880869 171.762944,54.8457031 175.656193,54.8457031 C177.399691,54.8457031 178.787698,54.5960311 179.820255,54.0966797 C180.852812,53.5973282 181.369083,52.8398488 181.369083,51.8242188 Z M202.538335,47 L193.372319,47 L193.372319,11.8085938 L202.538335,11.8085938 L202.538335,47 Z M235.895087,34.0507812 C235.895087,36.6237108 235.336499,38.9173076 234.219306,40.9316406 C233.102112,42.9459736 231.43058,44.5371035 229.204657,45.7050781 C226.978735,46.8730527 224.266197,47.4570312 221.066962,47.4570312 C217.867727,47.4570312 215.155189,46.8730527 212.929267,45.7050781 C210.703344,44.5371035 209.036043,42.9459736 207.927313,40.9316406 C206.818584,38.9173076 206.264227,36.6237108 206.264227,34.0507812 C206.264227,32.1041569 206.573144,30.3352944 207.190985,28.7441406 C207.808827,27.1529868 208.748271,25.7438212 210.009345,24.5166016 C211.270419,23.2893819 212.823463,22.3457064 214.668524,21.6855469 C216.513586,21.0253873 218.646377,20.6953125 221.066962,20.6953125 C223.504474,20.6953125 225.658424,21.0296191 227.528876,21.6982422 C229.399328,22.3668653 230.948141,23.3020773 232.17536,24.5039062 C233.40258,25.7057352 234.329328,27.110669 234.955634,28.71875 C235.581939,30.326831 235.895087,32.1041569 235.895087,34.0507812 Z M226.27204,34.0507812 C226.27204,32.0025939 225.827708,30.3987688 224.939032,29.2392578 C224.050356,28.0797468 222.759679,27.5 221.066962,27.5 C219.391172,27.5 218.108958,28.0797468 217.220282,29.2392578 C216.331606,30.3987688 215.887274,32.0025939 215.887274,34.0507812 C215.887274,36.0820414 216.335838,37.6900982 217.232977,38.875 C218.130117,40.0599018 219.408099,40.6523438 221.066962,40.6523438 C222.759679,40.6523438 224.050356,40.0641335 224.939032,38.8876953 C225.827708,37.7112571 226.27204,36.0989686 226.27204,34.0507812 Z M285.95887,47 L276.818245,47 L276.818245,33.2128906 C276.818245,31.3847565 276.517792,30.0179082 275.916878,29.1123047 C275.315963,28.2067012 274.363824,27.7539062 273.060432,27.7539062 C271.790895,27.7539062 270.74989,28.1389935 269.937385,28.9091797 C269.124881,29.6793658 268.31239,30.6484317 267.499885,31.8164062 L267.499885,47 L258.35926,47 L258.35926,33.2128906 C258.35926,31.4693923 258.079966,30.1237027 257.52137,29.1757812 C256.962773,28.2278598 255.972549,27.7539062 254.550667,27.7539062 C253.87358,27.7539062 253.251516,27.8893216 252.684456,28.1601562 C252.117396,28.4309909 251.656137,28.7356754 251.300667,29.0742188 C250.945196,29.4127621 250.51356,29.9121061 250.005745,30.5722656 C249.49793,31.2324252 249.176318,31.6471346 249.040901,31.8164062 L249.040901,47 L239.900276,47 L239.900276,21.1523438 L249.040901,21.1523438 L249.040901,24.859375 C250.412002,23.4036386 251.808472,22.3457064 253.230354,21.6855469 C254.652236,21.0253873 256.294147,20.6953125 258.156135,20.6953125 C259.036348,20.6953125 259.87423,20.7757153 260.669807,20.9365234 C261.465384,21.0973315 262.248254,21.3723939 263.01844,21.7617188 C263.788626,22.1510436 264.486861,22.6842414 265.113167,23.3613281 C265.739472,24.0384148 266.238816,24.8255163 266.611214,25.7226562 C268.083877,24.0637938 269.611531,22.8112021 271.194221,21.9648438 C272.776912,21.1184854 274.600787,20.6953125 276.665901,20.6953125 C278.731016,20.6953125 280.461793,21.1100219 281.858284,21.9394531 C283.254775,22.7688844 284.287317,23.9664635 284.95594,25.5322266 C285.624563,27.0979896 285.95887,28.9980357 285.95887,31.2324219 L285.95887,47 Z M312.790231,45.8066406 C312.028508,46.0944025 311.22448,46.3610014 310.378122,46.6064453 C309.531763,46.8518892 308.579624,47.0550122 307.521676,47.2158203 C306.463728,47.3766284 305.308466,47.4570312 304.055856,47.4570312 C301.229019,47.4570312 298.838092,46.9788459 296.883004,46.0224609 C294.927916,45.0660759 293.421421,43.864265 292.363473,42.4169922 C291.305525,40.9697193 290.573436,39.4928461 290.167184,37.9863281 C289.760932,36.4798102 289.557809,35.1510474 289.557809,34 C289.557809,32.8489526 289.765164,31.5201898 290.179879,30.0136719 C290.594595,28.5071539 291.318221,27.0514393 292.350778,25.6464844 C293.383335,24.2415294 294.877135,23.0651089 296.832223,22.1171875 C298.787311,21.1692661 301.195165,20.6953125 304.055856,20.6953125 C305.968626,20.6953125 307.525902,20.8307278 308.727731,21.1015625 C309.92956,21.3723972 311.148298,21.7363258 312.383981,22.1933594 L312.383981,29.3789062 C309.404799,28.4309848 307.077349,27.9570312 305.401559,27.9570312 C303.776551,27.9570312 302.333532,28.4479118 301.072457,29.4296875 C299.811383,30.4114632 299.180856,31.9348855 299.180856,34 C299.180856,35.3711006 299.494004,36.5263625 300.120309,37.4658203 C300.746614,38.4052781 301.542179,39.0950499 302.507028,39.5351562 C303.471876,39.9752626 304.43671,40.1953125 305.401559,40.1953125 C306.315626,40.1953125 307.356631,40.0598972 308.524606,39.7890625 C309.692581,39.5182278 311.114441,39.1289088 312.790231,38.6210938 L312.790231,45.8066406 Z M345.029795,34.0507812 C345.029795,36.6237108 344.471207,38.9173076 343.354014,40.9316406 C342.236821,42.9459736 340.565288,44.5371035 338.339365,45.7050781 C336.113443,46.8730527 333.400905,47.4570312 330.20167,47.4570312 C327.002435,47.4570312 324.289897,46.8730527 322.063975,45.7050781 C319.838052,44.5371035 318.170751,42.9459736 317.062022,40.9316406 C315.953292,38.9173076 315.398936,36.6237108 315.398936,34.0507812 C315.398936,32.1041569 315.707852,30.3352944 316.325694,28.7441406 C316.943535,27.1529868 317.882979,25.7438212 319.144053,24.5166016 C320.405127,23.2893819 321.958171,22.3457064 323.803233,21.6855469 C325.648294,21.0253873 327.781085,20.6953125 330.20167,20.6953125 C332.639182,20.6953125 334.793132,21.0296191 336.663584,21.6982422 C338.534036,22.3668653 340.082849,23.3020773 341.310069,24.5039062 C342.537288,25.7057352 343.464037,27.110669 344.090342,28.71875 C344.716647,30.326831 345.029795,32.1041569 345.029795,34.0507812 Z M335.406748,34.0507812 C335.406748,32.0025939 334.962417,30.3987688 334.07374,29.2392578 C333.185064,28.0797468 331.894387,27.5 330.20167,27.5 C328.525881,27.5 327.243667,28.0797468 326.35499,29.2392578 C325.466314,30.3987688 325.021983,32.0025939 325.021983,34.0507812 C325.021983,36.0820414 325.470546,37.6900982 326.367686,38.875 C327.264826,40.0599018 328.542808,40.6523438 330.20167,40.6523438 C331.894387,40.6523438 333.185064,40.0641335 334.07374,38.8876953 C334.962417,37.7112571 335.406748,36.0989686 335.406748,34.0507812 Z" id="conglomco" fill="#1E1E1E"></path>
        </g>
    </g>
</svg>
