<?xml version="1.0" encoding="UTF-8"?>
<svg width="348px" height="68px" viewBox="0 0 348 68" version="1.1" xmlns="http://www.w3.org/2000/svg" xmlns:xlink="http://www.w3.org/1999/xlink">
    <g id="Page-1" stroke="none" stroke-width="1" fill="none" fill-rule="evenodd">
        <g id="Group-4">
            <path d="M22.0591742,7.94166349 C21.5242889,3.55560386 24.6753103,0 29.0932217,0 L54.0881355,0 C58.507818,0 61.6578833,3.54892155 61.1221831,7.94166349 L58.0591742,33.0583365 C57.5242889,37.4443961 53.5043005,41 49.0872582,41 L34.0940991,41 C29.673932,41 25.6578833,37.4510785 25.1221831,33.0583365 L22.0591742,7.94166349 Z" id="Rectangle" fill-opacity="0.7" fill="#50E3C2"></path>
            <path d="M0.0591741734,19.9416635 C-0.475711148,15.5556039 2.67531035,12 7.0932217,12 L32.0881355,12 C36.507818,12 39.6578833,15.5489215 39.1221831,19.9416635 L36.0591742,45.0583365 C35.5242889,49.4443961 31.5043005,53 27.0872582,53 L12.0940991,53 C7.67393201,53 3.65788332,49.4510785 3.12218308,45.0583365 L0.0591741734,19.9416635 Z" id="Rectangle" fill-opacity="0.6" fill="#3296DC"></path>
            <path d="M27.0591742,34.9416635 C26.5242889,30.5556039 29.6753103,27 34.0932217,27 L59.0881355,27 C63.507818,27 66.6578833,30.5489215 66.1221831,34.9416635 L63.0591742,60.0583365 C62.5242889,64.4443961 58.5043005,68 54.0872582,68 L39.0940991,68 C34.673932,68 30.6578833,64.4510785 30.1221831,60.0583365 L27.0591742,34.9416635 Z" id="Rectangle" fill-opacity="0.699999988" fill="#7DE09A"></path>
            <path d="M97.0605469,45.8066406 C96.2988243,46.0944025 95.4947959,46.3610014 94.6484375,46.6064453 C93.8020791,46.8518892 92.8499402,47.0550122 91.7919922,47.2158203 C90.7340442,47.3766284 89.5787823,47.4570312 88.3261719,47.4570312 C85.4993348,47.4570312 83.1084082,46.9788459 81.1533203,46.0224609 C79.1982324,45.0660759 77.6917371,43.864265 76.6337891,42.4169922 C75.5758411,40.9697193 74.843752,39.4928461 74.4375,37.9863281 C74.031248,36.4798102 73.828125,35.1510474 73.828125,34 C73.828125,32.8489526 74.0354797,31.5201898 74.4501953,30.0136719 C74.8649109,28.5071539 75.5885365,27.0514393 76.6210938,25.6464844 C77.653651,24.2415294 79.1474512,23.0651089 81.1025391,22.1171875 C83.057627,21.1692661 85.4654805,20.6953125 88.3261719,20.6953125 C90.2389419,20.6953125 91.7962179,20.8307278 92.9980469,21.1015625 C94.1998758,21.3723972 95.4186136,21.7363258 96.6542969,22.1933594 L96.6542969,29.3789062 C93.6751153,28.4309848 91.3476646,27.9570312 89.671875,27.9570312 C88.0468669,27.9570312 86.6038475,28.4479118 85.3427734,29.4296875 C84.0816994,30.4114632 83.4511719,31.9348855 83.4511719,34 C83.4511719,35.3711006 83.7643198,36.5263625 84.390625,37.4658203 C85.0169302,38.4052781 85.8124952,39.0950499 86.7773438,39.5351562 C87.7421923,39.9752626 88.7070264,40.1953125 89.671875,40.1953125 C90.5859421,40.1953125 91.6269473,40.0598972 92.7949219,39.7890625 C93.9628965,39.5182278 95.3847572,39.1289088 97.0605469,38.6210938 L97.0605469,45.8066406 Z M129.300111,34.0507812 C129.300111,36.6237108 128.741523,38.9173076 127.62433,40.9316406 C126.507137,42.9459736 124.835604,44.5371035 122.609681,45.7050781 C120.383759,46.8730527 117.671221,47.4570312 114.471986,47.4570312 C111.272751,47.4570312 108.560213,46.8730527 106.334291,45.7050781 C104.108368,44.5371035 102.441067,42.9459736 101.332338,40.9316406 C100.223608,38.9173076 99.6692517,36.6237108 99.6692517,34.0507812 C99.6692517,32.1041569 99.9781679,30.3352944 100.59601,28.7441406 C101.213851,27.1529868 102.153295,25.7438212 103.414369,24.5166016 C104.675443,23.2893819 106.228487,22.3457064 108.073549,21.6855469 C109.91861,21.0253873 112.051401,20.6953125 114.471986,20.6953125 C116.909498,20.6953125 119.063448,21.0296191 120.9339,21.6982422 C122.804352,22.3668653 124.353165,23.3020773 125.580385,24.5039062 C126.807604,25.7057352 127.734353,27.110669 128.360658,28.71875 C128.986963,30.326831 129.300111,32.1041569 129.300111,34.0507812 Z M119.677064,34.0507812 C119.677064,32.0025939 119.232733,30.3987688 118.344056,29.2392578 C117.45538,28.0797468 116.164703,27.5 114.471986,27.5 C112.796196,27.5 111.513983,28.0797468 110.625306,29.2392578 C109.73663,30.3987688 109.292299,32.0025939 109.292299,34.0507812 C109.292299,36.0820414 109.740862,37.6900982 110.638002,38.875 C111.535142,40.0599018 112.813124,40.6523438 114.471986,40.6523438 C116.164703,40.6523438 117.45538,40.0641335 118.344056,38.8876953 C119.232733,37.7112571 119.677064,36.0989686 119.677064,34.0507812 Z M160.90491,47 L151.764285,47 L151.764285,33.0605469 C151.764285,31.6386648 151.53154,30.3987683 151.066043,29.3408203 C150.600545,28.2828723 149.580699,27.7539062 148.006472,27.7539062 C147.261677,27.7539062 146.605759,27.8935533 146.038699,28.1728516 C145.471639,28.4521498 144.963831,28.8118468 144.515261,29.2519531 C144.066691,29.6920595 143.690068,30.1152323 143.385378,30.5214844 C143.080689,30.9277364 142.767542,31.3593727 142.445925,31.8164062 L142.445925,47 L133.3053,47 L133.3053,21.1523438 L142.445925,21.1523438 L142.445925,24.859375 C143.884735,23.3190027 145.327754,22.2399119 146.775027,21.6220703 C148.2223,21.0042287 149.834588,20.6953125 151.611941,20.6953125 C157.807284,20.6953125 160.90491,24.4023067 160.90491,31.8164062 L160.90491,47 Z M191.646427,26.6621094 L187.126896,26.6621094 C188.71805,28.0501371 189.513615,29.751292 189.513615,31.765625 C189.513615,32.8320366 189.289333,33.8561149 188.840763,34.8378906 C188.392193,35.8196664 187.732043,36.6914024 186.860294,37.453125 C185.988545,38.2148476 184.913686,38.8369117 183.635685,39.3193359 C182.357684,39.8017602 180.897737,40.0937495 179.255802,40.1953125 C177.139906,40.2799483 176.081974,40.847 176.081974,41.8964844 C176.081974,42.3027364 176.217389,42.5989574 176.488224,42.7851562 C176.759059,42.9713551 177.186463,43.1110021 177.770451,43.2041016 C178.354438,43.297201 179.340431,43.4029942 180.728458,43.5214844 C182.302685,43.6569017 183.766863,43.8938785 185.121036,44.2324219 C186.47521,44.5709652 187.736265,45.2818956 188.90424,46.3652344 C190.072214,47.4485731 190.656193,48.9973858 190.656193,51.0117188 C190.656193,52.6197997 190.220325,54.0416605 189.348576,55.2773438 C188.476826,56.513027 187.067661,57.4778611 185.121036,58.171875 C183.174412,58.8658889 180.601521,59.2128906 177.402286,59.2128906 C172.798097,59.2128906 169.416946,58.5950583 167.258732,57.359375 C165.100518,56.1236917 164.021427,54.4733176 164.021427,52.4082031 C164.021427,51.8496066 164.161074,51.2063838 164.440372,50.4785156 C164.719671,49.7506474 165.312113,49.0481805 166.217716,48.3710938 C167.12332,47.694007 168.439387,47.2369804 170.165958,47 C169.55658,46.7799468 169.031846,46.3525422 168.59174,45.7177734 C168.151633,45.0830046 167.931583,44.4186233 167.931583,43.7246094 C167.931583,42.8274695 168.2405,41.9388065 168.858341,41.0585938 C169.476183,40.178381 170.479102,39.6113294 171.86713,39.3574219 C169.937433,38.8496068 168.270132,37.8932362 166.865177,36.4882812 C165.460222,35.0833263 164.757755,33.263683 164.757755,31.0292969 C164.757755,29.3365801 165.083598,27.8554751 165.735294,26.5859375 C166.38699,25.3163999 167.288348,24.2838581 168.439396,23.4882812 C169.590443,22.6927044 170.927669,22.1044941 172.451115,21.7236328 C173.97456,21.3427715 175.641861,21.1523438 177.453068,21.1523438 L191.646427,21.1523438 L191.646427,26.6621094 Z M181.540958,31.0292969 C181.540958,29.7259049 181.096627,28.680668 180.207951,27.8935547 C179.319274,27.1064414 178.324818,26.7128906 177.224552,26.7128906 C175.819597,26.7128906 174.715116,27.1868442 173.911076,28.1347656 C173.107035,29.082687 172.705021,30.081375 172.705021,31.1308594 C172.705021,31.8587276 172.878522,32.5358042 173.225529,33.1621094 C173.572536,33.7884146 174.063416,34.2919903 174.698185,34.6728516 C175.332954,35.0537128 176.090433,35.2441406 176.970646,35.2441406 C178.290965,35.2441406 179.382751,34.8294312 180.246036,34 C181.109322,33.1705688 181.540958,32.1803443 181.540958,31.0292969 Z M183.369083,51.8242188 C183.369083,50.6900985 182.763946,49.9580095 181.553654,49.6279297 C180.343361,49.2978499 179.095001,49.1328125 177.808536,49.1328125 C175.69264,49.1328125 174.164986,49.3570941 173.225529,49.8056641 C172.286071,50.254234 171.816349,50.9693961 171.816349,51.9511719 C171.816349,53.880869 173.762944,54.8457031 177.656193,54.8457031 C179.399691,54.8457031 180.787698,54.5960311 181.820255,54.0966797 C182.852812,53.5973282 183.369083,52.8398488 183.369083,51.8242188 Z M204.538335,47 L195.372319,47 L195.372319,11.8085938 L204.538335,11.8085938 L204.538335,47 Z M237.895087,34.0507812 C237.895087,36.6237108 237.336499,38.9173076 236.219306,40.9316406 C235.102112,42.9459736 233.43058,44.5371035 231.204657,45.7050781 C228.978735,46.8730527 226.266197,47.4570312 223.066962,47.4570312 C219.867727,47.4570312 217.155189,46.8730527 214.929267,45.7050781 C212.703344,44.5371035 211.036043,42.9459736 209.927313,40.9316406 C208.818584,38.9173076 208.264227,36.6237108 208.264227,34.0507812 C208.264227,32.1041569 208.573144,30.3352944 209.190985,28.7441406 C209.808827,27.1529868 210.748271,25.7438212 212.009345,24.5166016 C213.270419,23.2893819 214.823463,22.3457064 216.668524,21.6855469 C218.513586,21.0253873 220.646377,20.6953125 223.066962,20.6953125 C225.504474,20.6953125 227.658424,21.0296191 229.528876,21.6982422 C231.399328,22.3668653 232.948141,23.3020773 234.17536,24.5039062 C235.40258,25.7057352 236.329328,27.110669 236.955634,28.71875 C237.581939,30.326831 237.895087,32.1041569 237.895087,34.0507812 Z M228.27204,34.0507812 C228.27204,32.0025939 227.827708,30.3987688 226.939032,29.2392578 C226.050356,28.0797468 224.759679,27.5 223.066962,27.5 C221.391172,27.5 220.108958,28.0797468 219.220282,29.2392578 C218.331606,30.3987688 217.887274,32.0025939 217.887274,34.0507812 C217.887274,36.0820414 218.335838,37.6900982 219.232977,38.875 C220.130117,40.0599018 221.408099,40.6523438 223.066962,40.6523438 C224.759679,40.6523438 226.050356,40.0641335 226.939032,38.8876953 C227.827708,37.7112571 228.27204,36.0989686 228.27204,34.0507812 Z M287.95887,47 L278.818245,47 L278.818245,33.2128906 C278.818245,31.3847565 278.517792,30.0179082 277.916878,29.1123047 C277.315963,28.2067012 276.363824,27.7539062 275.060432,27.7539062 C273.790895,27.7539062 272.74989,28.1389935 271.937385,28.9091797 C271.124881,29.6793658 270.31239,30.6484317 269.499885,31.8164062 L269.499885,47 L260.35926,47 L260.35926,33.2128906 C260.35926,31.4693923 260.079966,30.1237027 259.52137,29.1757812 C258.962773,28.2278598 257.972549,27.7539062 256.550667,27.7539062 C255.87358,27.7539062 255.251516,27.8893216 254.684456,28.1601562 C254.117396,28.4309909 253.656137,28.7356754 253.300667,29.0742188 C252.945196,29.4127621 252.51356,29.9121061 252.005745,30.5722656 C251.49793,31.2324252 251.176318,31.6471346 251.040901,31.8164062 L251.040901,47 L241.900276,47 L241.900276,21.1523438 L251.040901,21.1523438 L251.040901,24.859375 C252.412002,23.4036386 253.808472,22.3457064 255.230354,21.6855469 C256.652236,21.0253873 258.294147,20.6953125 260.156135,20.6953125 C261.036348,20.6953125 261.87423,20.7757153 262.669807,20.9365234 C263.465384,21.0973315 264.248254,21.3723939 265.01844,21.7617188 C265.788626,22.1510436 266.486861,22.6842414 267.113167,23.3613281 C267.739472,24.0384148 268.238816,24.8255163 268.611214,25.7226562 C270.083877,24.0637938 271.611531,22.8112021 273.194221,21.9648438 C274.776912,21.1184854 276.600787,20.6953125 278.665901,20.6953125 C280.731016,20.6953125 282.461793,21.1100219 283.858284,21.9394531 C285.254775,22.7688844 286.287317,23.9664635 286.95594,25.5322266 C287.624563,27.0979896 287.95887,28.9980357 287.95887,31.2324219 L287.95887,47 Z M314.790231,45.8066406 C314.028508,46.0944025 313.22448,46.3610014 312.378122,46.6064453 C311.531763,46.8518892 310.579624,47.0550122 309.521676,47.2158203 C308.463728,47.3766284 307.308466,47.4570312 306.055856,47.4570312 C303.229019,47.4570312 300.838092,46.9788459 298.883004,46.0224609 C296.927916,45.0660759 295.421421,43.864265 294.363473,42.4169922 C293.305525,40.9697193 292.573436,39.4928461 292.167184,37.9863281 C291.760932,36.4798102 291.557809,35.1510474 291.557809,34 C291.557809,32.8489526 291.765164,31.5201898 292.179879,30.0136719 C292.594595,28.5071539 293.318221,27.0514393 294.350778,25.6464844 C295.383335,24.2415294 296.877135,23.0651089 298.832223,22.1171875 C300.787311,21.1692661 303.195165,20.6953125 306.055856,20.6953125 C307.968626,20.6953125 309.525902,20.8307278 310.727731,21.1015625 C311.92956,21.3723972 313.148298,21.7363258 314.383981,22.1933594 L314.383981,29.3789062 C311.404799,28.4309848 309.077349,27.9570312 307.401559,27.9570312 C305.776551,27.9570312 304.333532,28.4479118 303.072457,29.4296875 C301.811383,30.4114632 301.180856,31.9348855 301.180856,34 C301.180856,35.3711006 301.494004,36.5263625 302.120309,37.4658203 C302.746614,38.4052781 303.542179,39.0950499 304.507028,39.5351562 C305.471876,39.9752626 306.43671,40.1953125 307.401559,40.1953125 C308.315626,40.1953125 309.356631,40.0598972 310.524606,39.7890625 C311.692581,39.5182278 313.114441,39.1289088 314.790231,38.6210938 L314.790231,45.8066406 Z M347.029795,34.0507812 C347.029795,36.6237108 346.471207,38.9173076 345.354014,40.9316406 C344.236821,42.9459736 342.565288,44.5371035 340.339365,45.7050781 C338.113443,46.8730527 335.400905,47.4570312 332.20167,47.4570312 C329.002435,47.4570312 326.289897,46.8730527 324.063975,45.7050781 C321.838052,44.5371035 320.170751,42.9459736 319.062022,40.9316406 C317.953292,38.9173076 317.398936,36.6237108 317.398936,34.0507812 C317.398936,32.1041569 317.707852,30.3352944 318.325694,28.7441406 C318.943535,27.1529868 319.882979,25.7438212 321.144053,24.5166016 C322.405127,23.2893819 323.958171,22.3457064 325.803233,21.6855469 C327.648294,21.0253873 329.781085,20.6953125 332.20167,20.6953125 C334.639182,20.6953125 336.793132,21.0296191 338.663584,21.6982422 C340.534036,22.3668653 342.082849,23.3020773 343.310069,24.5039062 C344.537288,25.7057352 345.464037,27.110669 346.090342,28.71875 C346.716647,30.326831 347.029795,32.1041569 347.029795,34.0507812 Z M337.406748,34.0507812 C337.406748,32.0025939 336.962417,30.3987688 336.07374,29.2392578 C335.185064,28.0797468 333.894387,27.5 332.20167,27.5 C330.525881,27.5 329.243667,28.0797468 328.35499,29.2392578 C327.466314,30.3987688 327.021983,32.0025939 327.021983,34.0507812 C327.021983,36.0820414 327.470546,37.6900982 328.367686,38.875 C329.264826,40.0599018 330.542808,40.6523438 332.20167,40.6523438 C333.894387,40.6523438 335.185064,40.0641335 336.07374,38.8876953 C336.962417,37.7112571 337.406748,36.0989686 337.406748,34.0507812 Z" id="conglomco" fill="#3296DC"></path>
        </g>
    </g>
</svg>
