<?xml version="1.0" encoding="UTF-8"?>
<svg width="22px" height="22px" viewBox="0 0 22 22" version="1.1" xmlns="http://www.w3.org/2000/svg" xmlns:xlink="http://www.w3.org/1999/xlink">
  <defs></defs>
  <g id="Page-1" stroke="none" stroke-width="1" fill="none" fill-rule="evenodd">
    <g id="Warning" transform="translate(-8.000000, -9.000000)">
      <g id="!" transform="translate(8.000000, 9.000000)">
        <circle id="Oval" fill="#E24C4A" cx="10.5302504" cy="11.0018529" r="10.5"></circle>
        <g transform="translate(8.503246, 3.000000)" id="Triangle-29-path">
          <path d="M2,14.0769231 C2.65141284,14.0769231 3.17948718,13.5488487 3.17948718,12.8974359 C3.17948718,12.2460231 2.65141284,11.7179487 2,11.7179487 C1.34858716,11.7179487 0.820512821,12.2460231 0.820512821,12.8974359 C0.820512821,13.5488487 1.34858716,14.0769231 2,14.0769231 Z" fill="#FFFFFF"></path>
          <path d="M2,10.3589744 C2.65141272,10.3589744 3.17948718,9.82462385 3.17948718,9.18299014 L3.17948718,2.09906114 C3.17948718,1.44958302 2.65595434,0.923076923 2,0.923076923 C1.34858728,0.923076923 0.820512821,1.45742743 0.820512821,2.09906114 L0.820512821,9.18299014 C0.820512821,9.83246827 1.34404566,10.3589744 2,10.3589744 Z" fill="#FCEDEC"></path>
        </g>
      </g>
    </g>
  </g>
</svg>
